<svg width="221" height="36" viewBox="0 0 221 36" fill="none" xmlns="http://www.w3.org/2000/svg">
<path d="M0.24 28V1.72H7.224L13.812 17.416H14.46L21.012 1.72H28.104V28H23.028V5.572L23.676 5.644L16.584 22.636H11.364L4.236 5.644L4.92 5.572V28H0.24ZM33.6157 35.704V31.42H37.2877C37.9837 31.42 38.5597 31.324 39.0157 31.132C39.4957 30.964 39.8917 30.676 40.2037 30.268C40.5157 29.884 40.7557 29.344 40.9237 28.648L46.1797 8.452H50.9677L45.1717 29.728C44.7877 31.192 44.2477 32.356 43.5517 33.22C42.8557 34.108 41.9557 34.744 40.8517 35.128C39.7717 35.512 38.4277 35.704 36.8197 35.704H33.6157ZM39.6997 27.568V23.608H43.8757V27.568H39.6997ZM38.0077 27.568L31.6717 8.452H36.7117L42.7237 27.568H38.0077Z" fill="#1E1E1E"/>
<path d="M66.6465 28.684C64.2705 28.684 62.2305 28.264 60.5265 27.424C58.8225 26.584 57.4305 25.492 56.3505 24.148C55.2945 22.804 54.5145 21.34 54.0105 19.756C53.5065 18.172 53.2545 16.648 53.2545 15.184V14.392C53.2545 12.76 53.5065 11.152 54.0105 9.568C54.5385 7.984 55.3425 6.544 56.4225 5.248C57.5025 3.952 58.8705 2.92 60.5265 2.152C62.2065 1.36 64.1865 0.963998 66.4665 0.963998C68.8425 0.963998 70.9065 1.396 72.6585 2.26C74.4345 3.1 75.8505 4.3 76.9065 5.86C77.9625 7.396 78.5985 9.196 78.8145 11.26H73.6665C73.4745 10.06 73.0425 9.052 72.3705 8.236C71.7225 7.396 70.8945 6.772 69.8865 6.364C68.8785 5.932 67.7385 5.716 66.4665 5.716C65.1705 5.716 64.0185 5.944 63.0105 6.4C62.0025 6.832 61.1625 7.456 60.4905 8.272C59.8185 9.088 59.3025 10.048 58.9425 11.152C58.6065 12.256 58.4385 13.48 58.4385 14.824C58.4385 16.12 58.6065 17.32 58.9425 18.424C59.3025 19.528 59.8305 20.5 60.5265 21.34C61.2225 22.156 62.0745 22.792 63.0825 23.248C64.1145 23.704 65.3025 23.932 66.6465 23.932C68.6145 23.932 70.2705 23.452 71.6145 22.492C72.9825 21.508 73.8105 20.14 74.0985 18.388H79.2465C79.0065 20.26 78.3705 21.976 77.3385 23.536C76.3065 25.096 74.8905 26.344 73.0905 27.28C71.2905 28.216 69.1425 28.684 66.6465 28.684ZM92.5603 28.684C90.8323 28.684 89.3083 28.408 87.9883 27.856C86.6683 27.304 85.5523 26.56 84.6403 25.624C83.7283 24.664 83.0323 23.584 82.5523 22.384C82.0963 21.184 81.8683 19.936 81.8683 18.64V17.884C81.8683 16.54 82.1083 15.268 82.5883 14.068C83.0923 12.844 83.8003 11.764 84.7123 10.828C85.6483 9.868 86.7763 9.124 88.0963 8.596C89.4163 8.044 90.9043 7.768 92.5603 7.768C94.2163 7.768 95.7043 8.044 97.0243 8.596C98.3443 9.124 99.4603 9.868 100.372 10.828C101.308 11.764 102.016 12.844 102.496 14.068C102.976 15.268 103.216 16.54 103.216 17.884V18.64C103.216 19.936 102.976 21.184 102.496 22.384C102.04 23.584 101.356 24.664 100.444 25.624C99.5323 26.56 98.4163 27.304 97.0963 27.856C95.7763 28.408 94.2643 28.684 92.5603 28.684ZM92.5603 24.4C93.7843 24.4 94.8163 24.136 95.6563 23.608C96.4963 23.056 97.1323 22.324 97.5643 21.412C97.9963 20.476 98.2123 19.42 98.2123 18.244C98.2123 17.044 97.9843 15.988 97.5283 15.076C97.0963 14.14 96.4483 13.408 95.5843 12.88C94.7443 12.328 93.7363 12.052 92.5603 12.052C91.3843 12.052 90.3643 12.328 89.5003 12.88C88.6603 13.408 88.0123 14.14 87.5563 15.076C87.1003 15.988 86.8723 17.044 86.8723 18.244C86.8723 19.42 87.0883 20.476 87.5203 21.412C87.9763 22.324 88.6243 23.056 89.4643 23.608C90.3043 24.136 91.3363 24.4 92.5603 24.4ZM107.598 28V8.452H111.558V16.84H111.198C111.198 14.848 111.462 13.192 111.99 11.872C112.518 10.528 113.298 9.52 114.33 8.848C115.386 8.176 116.694 7.84 118.254 7.84H118.47C120.798 7.84 122.562 8.596 123.762 10.108C124.962 11.596 125.562 13.828 125.562 16.804V28H120.558V16.372C120.558 15.172 120.21 14.2 119.514 13.456C118.842 12.712 117.906 12.34 116.706 12.34C115.482 12.34 114.486 12.724 113.718 13.492C112.974 14.236 112.602 15.244 112.602 16.516V28H107.598ZM139.438 28.252C137.638 28.252 136.15 28.024 134.974 27.568C133.822 27.088 132.958 26.296 132.382 25.192C131.806 24.064 131.518 22.552 131.518 20.656L131.554 2.944H136.234L136.198 20.98C136.198 21.94 136.45 22.684 136.954 23.212C137.482 23.716 138.226 23.968 139.186 23.968H142.246V28.252H139.438ZM128.422 12.124V8.452H142.246V12.124H128.422ZM158.219 28V22.204H157.391V15.76C157.391 14.632 157.115 13.792 156.563 13.24C156.011 12.688 155.159 12.412 154.007 12.412C153.407 12.412 152.687 12.424 151.847 12.448C151.007 12.472 150.155 12.508 149.291 12.556C148.451 12.58 147.695 12.616 147.023 12.664V8.416C147.575 8.368 148.199 8.32 148.895 8.272C149.591 8.224 150.299 8.2 151.019 8.2C151.763 8.176 152.459 8.164 153.107 8.164C155.123 8.164 156.791 8.428 158.111 8.956C159.455 9.484 160.463 10.312 161.135 11.44C161.831 12.568 162.179 14.044 162.179 15.868V28H158.219ZM151.919 28.504C150.503 28.504 149.255 28.252 148.175 27.748C147.119 27.244 146.291 26.524 145.691 25.588C145.115 24.652 144.827 23.524 144.827 22.204C144.827 20.764 145.175 19.588 145.871 18.676C146.591 17.764 147.587 17.08 148.859 16.624C150.155 16.168 151.667 15.94 153.395 15.94H157.931V18.928H153.323C152.171 18.928 151.283 19.216 150.659 19.792C150.059 20.344 149.759 21.064 149.759 21.952C149.759 22.84 150.059 23.56 150.659 24.112C151.283 24.664 152.171 24.94 153.323 24.94C154.019 24.94 154.655 24.82 155.231 24.58C155.831 24.316 156.323 23.884 156.707 23.284C157.115 22.66 157.343 21.82 157.391 20.764L158.615 22.168C158.495 23.536 158.159 24.688 157.607 25.624C157.079 26.56 156.335 27.28 155.375 27.784C154.439 28.264 153.287 28.504 151.919 28.504ZM176.215 28.684C174.511 28.684 173.035 28.396 171.787 27.82C170.563 27.244 169.531 26.476 168.691 25.516C167.875 24.556 167.263 23.476 166.855 22.276C166.447 21.076 166.243 19.852 166.243 18.604V17.92C166.243 16.6 166.447 15.34 166.855 14.14C167.287 12.916 167.923 11.836 168.763 10.9C169.603 9.94 170.635 9.184 171.859 8.632C173.107 8.056 174.547 7.768 176.179 7.768C177.883 7.768 179.407 8.104 180.751 8.776C182.095 9.424 183.163 10.336 183.955 11.512C184.771 12.688 185.227 14.056 185.323 15.616H180.463C180.343 14.608 179.911 13.768 179.167 13.096C178.447 12.424 177.451 12.088 176.179 12.088C175.075 12.088 174.151 12.352 173.407 12.88C172.687 13.408 172.147 14.14 171.787 15.076C171.427 15.988 171.247 17.044 171.247 18.244C171.247 19.396 171.415 20.44 171.751 21.376C172.111 22.312 172.651 23.044 173.371 23.572C174.115 24.1 175.063 24.364 176.215 24.364C177.079 24.364 177.823 24.208 178.447 23.896C179.071 23.584 179.563 23.152 179.923 22.6C180.307 22.048 180.547 21.424 180.643 20.728H185.503C185.407 22.312 184.939 23.704 184.099 24.904C183.283 26.08 182.191 27.004 180.823 27.676C179.479 28.348 177.943 28.684 176.215 28.684ZM198.008 28.252C196.208 28.252 194.72 28.024 193.544 27.568C192.392 27.088 191.528 26.296 190.952 25.192C190.376 24.064 190.088 22.552 190.088 20.656L190.124 2.944H194.804L194.768 20.98C194.768 21.94 195.02 22.684 195.524 23.212C196.052 23.716 196.796 23.968 197.756 23.968H200.816V28.252H198.008ZM186.992 12.124V8.452H200.816V12.124H186.992ZM211.967 28.612C209.279 28.612 207.167 28.048 205.631 26.92C204.119 25.768 203.327 24.184 203.255 22.168H207.755C207.827 22.84 208.199 23.452 208.871 24.004C209.543 24.556 210.599 24.832 212.039 24.832C213.239 24.832 214.187 24.616 214.883 24.184C215.603 23.752 215.963 23.164 215.963 22.42C215.963 21.772 215.687 21.256 215.135 20.872C214.607 20.488 213.695 20.236 212.399 20.116L210.671 19.936C208.487 19.696 206.807 19.072 205.631 18.064C204.455 17.056 203.867 15.712 203.867 14.032C203.867 12.688 204.203 11.56 204.875 10.648C205.547 9.736 206.471 9.052 207.647 8.596C208.847 8.116 210.215 7.876 211.751 7.876C214.151 7.876 216.095 8.404 217.583 9.46C219.071 10.516 219.851 12.064 219.923 14.104H215.423C215.375 13.432 215.039 12.856 214.415 12.376C213.791 11.896 212.891 11.656 211.715 11.656C210.659 11.656 209.843 11.86 209.267 12.268C208.691 12.676 208.403 13.204 208.403 13.852C208.403 14.476 208.631 14.956 209.087 15.292C209.567 15.628 210.335 15.856 211.391 15.976L213.119 16.156C215.423 16.396 217.223 17.032 218.519 18.064C219.839 19.096 220.499 20.488 220.499 22.24C220.499 23.536 220.139 24.664 219.419 25.624C218.723 26.56 217.739 27.292 216.467 27.82C215.195 28.348 213.695 28.612 211.967 28.612Z" fill="#A081FF"/>
</svg>
